# xmcd
#
# Track frame offsets:
#	150
#	15319
#	25452
#	43158
#	58172
#	73777
#	87058
#	102213
#	112356
#	130016
#	145089
#	160550
#	173719
#	175361
#	176947
#	178615
#	180148
#	181717
#
# Disc length: 2444 seconds
#
# Revision: 1
# Processed by: cddbd v1.5.2PL0 Copyright (c) Steve Scherf et al.
# Submitted via: audiograbber 1.83.01
#
DISCID=ed098a12
DTITLE=Bert Lederer - Ein Halbes Dutzend Blues Playalongs
DYEAR=2003
DGENRE=Guitar Playalong
TTITLE0=All The Kings You Are-Fulltrack
TTITLE1=Danny Get It On-Fulltrack
TTITLE2=Red House Is Rocking-Fulltrack
TTITLE3=You Cut Him To The Bone-Fulltrack
TTITLE4=Gary Still Has The Blues-Fulltrack
TTITLE5=The Funky Brother-Fullltrack
TTITLE6=All The Kings You Are-Playback
TTITLE7=Danny Get It On-Playback
TTITLE8=Red House Is Rocking-Playback
TTITLE9=You Cut Him To The Bone-Playback
TTITLE10=Gary Still Has The Blues-Playback
TTITLE11=The Funky Brother-Playback
TTITLE12=Stimmton E
TTITLE13=Stimmton A
TTITLE14=Stimmton d
TTITLE15=Stimmton g
TTITLE16=Stimmton h
TTITLE17=Stimmton e'
EXTD=
EXTT0=
EXTT1=
EXTT2=
EXTT3=
EXTT4=
EXTT5=
EXTT6=
EXTT7=
EXTT8=
EXTT9=
EXTT10=
EXTT11=
EXTT12=
EXTT13=
EXTT14=
EXTT15=
EXTT16=
EXTT17=
PLAYORDER=
